<svg id="Layer_1" data-name="Layer 1" xmlns="http://www.w3.org/2000/svg" viewBox="0 0 612 792"><defs><style>.cls-1{fill:#231f20;}</style></defs><path class="cls-1" d="M115.1,383.22a158.82,158.82,0,0,0,2.72,47.3c.58,2.77,5,2.13,4.91-.66l-1.3-60.94c0-1.12-.09-2.26-.06-3.38a2.79,2.79,0,0,1,.29-1.49c-.25.25-.11.05.26.18a9.48,9.48,0,0,1,1.38.63c1,.54,2,1.11,3,1.68q6.23,3.54,12.1,7.62a106.61,106.61,0,0,1,19.68,16.9C163.3,397,167.65,404,169,411.89a23.56,23.56,0,0,1-4.6,18.68,28.21,28.21,0,0,1-15.6,9.7,25,25,0,0,1-8.82.43,22.89,22.89,0,0,1-4.73-1.24c-1-.37-2.86-1-2.78-2.17s1.73-2.56,2.72-3.25a62.83,62.83,0,0,1,6-3.43q6.42-3.5,12.93-6.8,13.14-6.69,26.64-12.61,3.21-1.41,6.45-2.77l-2.83-3.68-3.68,4.89c-1.22,1.63-2.7,3.22-3.42,5.14a4.52,4.52,0,0,0,1.57,5.35,8.28,8.28,0,0,0,5.06,1.18c3.92-.21,7.35-2.22,10.49-4.41,2.52-1.76,5.3-4,8.48-4.34a5.43,5.43,0,0,1,3.77,1.05,2.9,2.9,0,0,1,1.4,2.49,2.54,2.54,0,0,0,2.41,3.17c4-.16,6.74-2.88,9.05-5.88,1.05-1.37,2.09-2.89,3-3.95a16.61,16.61,0,0,1,1.58-1.67s.56-.45.28-.24.32-.21.3-.19l.37-.23.39-.2-.1,0a5.93,5.93,0,0,1,.94-.26c-.54.1.49,0,.68,0a5.78,5.78,0,0,1,2.46,1.3c2,1.66,3.59,3.69,6,4.79,2.6,1.18,5.61,1.39,7.89-.58s2.42-5,1.93-7.66c-1.1-6.09-4.73-12-8.88-16.46l-1.1,4.18a77.29,77.29,0,0,1,22.05-4.86l-2.16-1.24c2.15,3.78,1.19,8.43,2.63,12.43,1.34,3.73,4.56,7.55,8.82,7.64,4.88.09,7.23-4.66,9-8.42a72.72,72.72,0,0,0,5.05-13.93l-4.57.6c3.52,5.12,7.25,10.44,12.75,13.59a17.18,17.18,0,0,0,15.81.86c5.19-2.53,7.35-8.26,6.3-13.72s-5-10.31-9.58-13.36c-5.85-3.87-12.91-5.68-18.47-10a2.58,2.58,0,0,0-3.54,0,2.53,2.53,0,0,0,0,3.54c4.51,3.51,9.71,5.57,14.78,8.11,4.5,2.26,8.52,5,10.84,9.59,1.74,3.48,2,8-1.36,10.64-3,2.36-7.73,2.19-11.14.62-5.34-2.45-8.85-7.7-12.07-12.38-1.16-1.69-4-1.62-4.57.59a65.55,65.55,0,0,1-4,11.49,45.31,45.31,0,0,1-2.73,5.27c-.58.93-1.53,2-2.56,1.94a4.62,4.62,0,0,1-2.91-2,9.8,9.8,0,0,1-1.73-4.66c-.57-3.78-.58-7.56-2.52-11a2.48,2.48,0,0,0-2.16-1.24,81.45,81.45,0,0,0-23.38,5,2.53,2.53,0,0,0-1.1,4.18,31.47,31.47,0,0,1,7.27,12.87c.28,1,1,3.4-.23,4.1-1.45.86-3.75-1.16-4.71-2.07-3-2.91-6.74-6.08-11.25-4.38-3.21,1.2-5.25,4-7.21,6.7a25.66,25.66,0,0,1-3.09,3.78,5.32,5.32,0,0,1-1.55,1.17s-.64.31-.31.17-.37.12-.45.14l-.44.11q-.27,0,.09,0l-.47,0,2.41,3.16c.74-4.34-2.09-7.86-6.07-9.31-4.24-1.53-8.65.3-12.21,2.6s-7.33,6-11.74,5.59c-.31,0-.65-.15-.94-.16-.35-.23-.37-.2-.06.08,0,.58.08.6.17.07.68-.9,1.29-1.86,2-2.77l4.71-6.25c1.25-1.66-.86-4.5-2.82-3.67Q171,409.88,156.54,417q-7.18,3.56-14.27,7.34c-2.33,1.24-4.64,2.5-7,3.78a20,20,0,0,0-5.59,4.1c-1.53,1.77-2.61,3.95-2.15,6.34a7.13,7.13,0,0,0,4.38,4.89,27,27,0,0,0,10.93,2.43,32.69,32.69,0,0,0,20.54-7.36,28.54,28.54,0,0,0,10.7-19.07c1-8.9-2.24-17.72-7.14-25-5.22-7.79-12.13-14.15-19.53-19.84-4.08-3.14-8.31-6.1-12.67-8.84q-3.33-2.08-6.75-4c-2.17-1.23-4.6-2.91-7.21-2.55-5.73.8-4.43,8.42-4.34,12.44l.35,16.66.71,33.33.18,8.21,4.91-.67a154.22,154.22,0,0,1-2.54-46,2.51,2.51,0,0,0-2.5-2.5,2.55,2.55,0,0,0-2.5,2.5Z"/><path class="cls-1" d="M308.86,390.9,325,361.44c4.95-9,10.1-18.06,13.42-27.85a58.92,58.92,0,0,0,3.18-16.72c.1-2.69-3.31-3.12-4.65-1.26-4.49,6.2-5.18,14.16-3.63,21.49,1.65,7.8,5.88,14.56,11.05,20.51,5.44,6.27,11.81,11.63,17.52,17.65,1.75,1.84,5.86,5.7,3.79,8.53a6.5,6.5,0,0,1-3.46,2,39.16,39.16,0,0,1-5.79,1.1,96.09,96.09,0,0,1-31.06-.82l.6,4.57a162.7,162.7,0,0,0,39.69-24.17l-4.18-1.1c3,13.81,4.1,27.93,4.7,42,.62,14.37,1,28.75,1.47,43.13l.82,24.6a2.5,2.5,0,0,0,5,0,496.09,496.09,0,0,1,11.65-88q2.75-12.22,6.11-24.29l-4.91-.66a40.67,40.67,0,0,0,1.37,13.22,2.53,2.53,0,0,0,4.57.6A74.55,74.55,0,0,0,400,354.55h-4.83a24,24,0,0,0,4.48,9.46,9.85,9.85,0,0,0,4.3,3,10.47,10.47,0,0,0,5.82-.05,5.65,5.65,0,0,1,2.11-.19c.07,0,.52.2.26.07s.08.07.1.08c.41.27.09.05,0,0,.34.21,0-.11.08.06s.34.69.18.26c0,.11.24.95.16.44a5.77,5.77,0,0,1,0,.83c0,.13,0,.25,0,.37,0,.76.06-.22,0,.21-.54,2.74-1.91,4.2-4.68,5.05-4.35,1.32-9,1.31-12.95,3.86-2.28,1.48-.89,5.48,1.93,4.57a175.91,175.91,0,0,0,39.64-18.46c2.36-1.49.87-5.35-1.92-4.57-5.07,1.4-5.91,8.44-1.76,11.34a2.56,2.56,0,0,0,3.43-.9A9.34,9.34,0,0,1,448,367c2.5,1.32,4.45,3.46,7.21,4.32a7.63,7.63,0,0,0,7.34-1.55c3.67-3.23,4-9.14,3.34-13.63a68.67,68.67,0,0,0-5.48-17.86,70.78,70.78,0,0,0-11.47-17.61,2.5,2.5,0,1,0-3.53,3.54,66.51,66.51,0,0,1,15.27,31.06,19.19,19.19,0,0,1,.4,6.26,11.58,11.58,0,0,1-.75,2.88,9.14,9.14,0,0,1-.66,1.16c.15-.21-.81.78-.55.59a2.18,2.18,0,0,1-.79.41,1.7,1.7,0,0,1-1.06.1,6.9,6.9,0,0,1-3-1.46c-2.17-1.51-4.16-3.08-6.78-3.71a14.55,14.55,0,0,0-15.36,6l3.42-.9c.29.21-.19-.31,0,0-.37-.64.09.38-.16-.32s-.05.25-.07-.35c0,0,.07-.77,0-.37a1.71,1.71,0,0,1,.45-1.05c-.2.3.26-.15.06,0,.1-.07,0,0,.29-.1l-1.93-4.57a170.73,170.73,0,0,1-38.45,18l1.92,4.57c3.5-2.27,7.87-2.17,11.76-3.36a11.22,11.22,0,0,0,7.74-7c1-2.79,1-6.46-1.36-8.61a6.61,6.61,0,0,0-5.49-1.5c-1,.13-2,.45-3,.59a3.71,3.71,0,0,1-2.08-.26c-2.94-1.3-4.36-5.82-5.17-8.9-.61-2.29-4.35-2.49-4.83,0A70,70,0,0,1,388,373.46l4.56.6a36.4,36.4,0,0,1-1.19-11.89c.18-2.86-4.17-3.34-4.91-.67a503.72,503.72,0,0,0-16.22,88.17q-1.18,12.7-1.72,25.46h5L372,430.89c-.47-14.27-.73-28.58-2.07-42.81a203,203,0,0,0-3.63-24c-.43-2-2.83-2.21-4.18-1.1a158.49,158.49,0,0,1-38.67,23.38c-2,.83-1.41,4.19.59,4.57a101.73,101.73,0,0,0,29,1.4c6.86-.67,20.24-1.88,17.93-12.14-.94-4.19-4.55-7.48-7.45-10.41s-6.12-5.93-9.16-8.91c-5.68-5.58-11.43-11.65-14.41-19.16s-3.69-16.58,1.33-23.54l-4.66-1.26c-.35,9.73-3.91,18.95-8.19,27.58-4.68,9.42-10,18.55-15,27.77l-8.85,16.15c-1.55,2.83,2.77,5.35,4.32,2.53Z"/><path class="cls-1" d="M469.26,361.37A26,26,0,0,0,485.32,344a2.53,2.53,0,0,0-3.08-3.08c-3.56.84-7.36,2-9.59,5.1-1.84,2.58-2.12,6.46-.13,9,2.66,3.43,7.05,2.42,10.6,1.31l12.64-4c3.06-1,1.75-5.79-1.33-4.82l-9.83,3.08c-1.5.47-3,1-4.52,1.4-1,.28-2.32.72-3.29.21-.5-.26-.62-.7-.65-1.34a3.63,3.63,0,0,1,.63-2.11c1.47-2,4.55-2.54,6.8-3.06l-3.07-3.08a20.73,20.73,0,0,1-12.57,13.84,2.56,2.56,0,0,0-1.75,3.07,2.53,2.53,0,0,0,3.08,1.75Z"/></svg>