<?xml version="1.0" encoding="utf-8"?>
<!-- Generator: Adobe Illustrator 24.3.0, SVG Export Plug-In . SVG Version: 6.00 Build 0)  -->
<svg version="1.1" id="Layer_1" xmlns="http://www.w3.org/2000/svg" xmlns:xlink="http://www.w3.org/1999/xlink" x="0px" y="0px"
	 viewBox="0 0 250 100" style="enable-background:new 0 0 250 100;" xml:space="preserve">
<style type="text/css">
	.st0{clip-path:url(#SVGID_2_);}
	.st1{clip-path:url(#SVGID_4_);}
</style>
<g id="Artwork_1_1_">
	<g>
		<defs>
			<rect id="SVGID_1_" x="71.98" y="27.43" width="106.04" height="45.14"/>
		</defs>
		<clipPath id="SVGID_2_">
			<use xlink:href="#SVGID_1_"  style="overflow:visible;"/>
		</clipPath>
		<g class="st0">
			<defs>
				<rect id="SVGID_3_" x="71.98" y="27.43" width="106.04" height="45.14"/>
			</defs>
			<clipPath id="SVGID_4_">
				<use xlink:href="#SVGID_3_"  style="overflow:visible;"/>
			</clipPath>
			<path class="st1" d="M72.17,46.46c-0.41,4.37-0.15,8.79,0.75,13.09c0.16,0.77,1.38,0.59,1.36-0.18
				c-0.12-5.62-0.24-11.24-0.36-16.87c-0.01-0.31-0.02-0.63-0.02-0.94c0-0.14,0.02-0.35,0.08-0.41c-0.07,0.07-0.03,0.01,0.07,0.05
				c0.14,0.05,0.26,0.1,0.38,0.17c0.28,0.15,0.56,0.31,0.84,0.47c1.15,0.65,2.26,1.36,3.35,2.11c1.97,1.36,3.86,2.87,5.45,4.68
				c1.44,1.64,2.64,3.59,3.01,5.77c0.31,1.83-0.12,3.73-1.27,5.17c-1.09,1.36-2.63,2.3-4.32,2.69c-0.78,0.18-1.67,0.23-2.44,0.12
				c-0.45-0.07-0.89-0.18-1.31-0.34c-0.27-0.1-0.79-0.28-0.77-0.6c0.02-0.32,0.48-0.71,0.75-0.9c0.52-0.36,1.11-0.64,1.67-0.95
				c1.18-0.64,2.38-1.27,3.58-1.88c2.42-1.23,4.88-2.4,7.37-3.49c0.59-0.26,1.19-0.52,1.78-0.77c-0.26-0.34-0.52-0.68-0.78-1.02
				c-0.34,0.45-0.68,0.9-1.02,1.35c-0.34,0.45-0.75,0.89-0.95,1.42c-0.2,0.54-0.05,1.15,0.43,1.48c0.39,0.27,0.93,0.35,1.4,0.33
				c1.08-0.06,2.03-0.61,2.9-1.22c0.7-0.49,1.47-1.11,2.35-1.2c0.37-0.04,0.74,0.07,1.04,0.29c0.24,0.18,0.43,0.45,0.39,0.69
				c-0.07,0.42,0.18,0.9,0.67,0.88c1.11-0.04,1.87-0.8,2.5-1.63c0.29-0.38,0.58-0.8,0.83-1.09c0.14-0.16,0.28-0.32,0.44-0.46
				c-0.01,0.01,0.15-0.13,0.08-0.07c-0.08,0.06,0.09-0.06,0.08-0.05c0.03-0.02,0.07-0.04,0.1-0.06c0.04-0.02,0.07-0.04,0.11-0.06
				c-0.07,0.03-0.07,0.03-0.03,0.01c0.08-0.03,0.17-0.06,0.26-0.07c-0.15,0.03,0.14,0,0.19,0.01c0.2,0.03,0.49,0.2,0.68,0.36
				c0.55,0.46,0.99,1.02,1.66,1.33c0.72,0.33,1.55,0.39,2.19-0.16c0.61-0.53,0.67-1.37,0.53-2.12c-0.3-1.69-1.31-3.32-2.46-4.56
				c-0.1,0.39-0.2,0.77-0.31,1.16c1.96-0.74,4.01-1.2,6.1-1.35c-0.2-0.11-0.4-0.23-0.6-0.34c0.59,1.05,0.33,2.33,0.73,3.44
				c0.37,1.03,1.26,2.09,2.44,2.11c1.35,0.03,2-1.29,2.51-2.33c0.6-1.23,1.07-2.52,1.4-3.85c-0.42,0.06-0.84,0.11-1.26,0.17
				c0.97,1.42,2.01,2.89,3.53,3.76c1.32,0.75,3,0.91,4.38,0.24c1.44-0.7,2.03-2.29,1.74-3.8c-0.29-1.53-1.38-2.85-2.65-3.7
				c-1.62-1.07-3.57-1.57-5.11-2.77c-0.29-0.23-0.69-0.29-0.98,0c-0.24,0.24-0.3,0.75,0,0.98c1.25,0.97,2.69,1.54,4.09,2.25
				c1.25,0.63,2.36,1.38,3,2.66c0.48,0.96,0.56,2.22-0.38,2.94c-0.84,0.65-2.14,0.61-3.08,0.17c-1.48-0.68-2.45-2.13-3.34-3.43
				c-0.32-0.47-1.11-0.45-1.26,0.17c-0.27,1.09-0.63,2.16-1.1,3.18c-0.23,0.5-0.46,1-0.75,1.46c-0.16,0.26-0.42,0.56-0.71,0.54
				c-0.33-0.02-0.62-0.3-0.8-0.55c-0.29-0.38-0.41-0.82-0.48-1.29c-0.16-1.05-0.16-2.09-0.7-3.04c-0.11-0.2-0.36-0.36-0.6-0.34
				c-2.21,0.15-4.4,0.61-6.47,1.39c-0.49,0.18-0.68,0.75-0.31,1.16c0.94,1.01,1.65,2.24,2.01,3.56c0.08,0.28,0.27,0.94-0.06,1.13
				c-0.4,0.24-1.04-0.32-1.3-0.57c-0.85-0.81-1.87-1.68-3.12-1.21c-0.89,0.33-1.45,1.12-2,1.85c-0.3,0.41-0.48,0.68-0.86,1.05
				c-0.18,0.18-0.19,0.18-0.43,0.32c0.01,0-0.18,0.09-0.09,0.05c0.07-0.03-0.1,0.03-0.12,0.04c-0.04,0.01-0.08,0.02-0.12,0.03
				c-0.05,0.01-0.04,0.01,0.03,0c-0.04,0-0.09,0.01-0.13,0.01c0.22,0.29,0.44,0.58,0.67,0.88c0.2-1.2-0.58-2.18-1.68-2.58
				c-1.17-0.42-2.39,0.08-3.38,0.72c-0.95,0.61-2.03,1.67-3.25,1.55c-0.09-0.01-0.18-0.04-0.26-0.04c-0.1-0.06-0.1-0.06-0.02,0.02
				c0,0.16,0.02,0.17,0.05,0.02c0.19-0.25,0.36-0.52,0.54-0.77c0.43-0.58,0.87-1.15,1.3-1.73c0.35-0.46-0.24-1.25-0.78-1.02
				c-2.74,1.16-5.46,2.39-8.13,3.71c-1.33,0.66-2.64,1.34-3.95,2.03c-0.64,0.34-1.28,0.69-1.92,1.05c-0.56,0.31-1.12,0.64-1.55,1.13
				c-0.42,0.49-0.72,1.09-0.6,1.76c0.12,0.65,0.64,1.09,1.21,1.36c0.95,0.43,1.98,0.66,3.03,0.67c2.07,0.02,4.08-0.76,5.69-2.04
				c1.65-1.31,2.72-3.19,2.96-5.28c0.29-2.46-0.62-4.9-1.98-6.92c-1.45-2.16-3.36-3.92-5.41-5.49c-1.13-0.87-2.3-1.69-3.51-2.45
				c-0.61-0.38-1.24-0.75-1.87-1.11c-0.6-0.34-1.27-0.8-2-0.7c-1.59,0.22-1.23,2.33-1.2,3.44c0.03,1.54,0.07,3.08,0.1,4.61
				c0.07,3.07,0.13,6.15,0.2,9.23c0.02,0.76,0.03,1.51,0.05,2.27c0.45-0.06,0.91-0.12,1.36-0.18c-0.87-4.18-1.1-8.47-0.7-12.73
				c0.03-0.37-0.34-0.69-0.69-0.69C72.46,45.77,72.2,46.09,72.17,46.46"/>
			<path class="st1" d="M125.8,48.58l4.47-8.16c1.37-2.5,2.8-5,3.71-7.71c0.51-1.49,0.83-3.05,0.88-4.63
				c0.03-0.74-0.92-0.86-1.29-0.35c-1.24,1.72-1.43,3.92-1.01,5.95c0.46,2.16,1.63,4.03,3.06,5.68c1.51,1.73,3.27,3.22,4.85,4.88
				c0.48,0.51,1.62,1.58,1.05,2.36c-0.22,0.3-0.61,0.45-0.96,0.55c-0.52,0.16-1.07,0.23-1.6,0.31c-2.85,0.4-5.77,0.31-8.6-0.23
				c0.06,0.42,0.11,0.84,0.17,1.27c3.97-1.69,7.66-3.95,10.99-6.69c-0.39-0.1-0.77-0.2-1.16-0.31c0.84,3.82,1.13,7.73,1.3,11.63
				c0.17,3.98,0.28,7.96,0.41,11.94c0.07,2.27,0.15,4.54,0.22,6.81c0.03,0.89,1.35,0.89,1.38,0c0.35-8.2,1.43-16.36,3.23-24.36
				c0.51-2.25,1.07-4.5,1.69-6.72c-0.45-0.06-0.91-0.12-1.36-0.18c-0.08,1.23,0.06,2.47,0.38,3.66c0.15,0.56,0.98,0.69,1.26,0.17
				c1.01-1.86,1.74-3.86,2.14-5.93h-1.33c0.25,0.94,0.61,1.87,1.24,2.62c0.32,0.37,0.73,0.67,1.19,0.82
				c0.53,0.18,1.07,0.11,1.61-0.01c0.2-0.05,0.39-0.08,0.58-0.05c0.02,0,0.14,0.06,0.07,0.02c-0.07-0.03,0.02,0.02,0.03,0.02
				c0.11,0.07,0.02,0.01,0,0c0.1,0.06-0.01-0.03,0.02,0.02c0.03,0.04,0.09,0.19,0.05,0.07c0.01,0.03,0.07,0.26,0.04,0.12
				c0.01,0.08,0.01,0.16,0.01,0.23c0,0.03,0,0.07,0,0.1c-0.01,0.21,0.02-0.06-0.01,0.06c-0.15,0.76-0.53,1.16-1.3,1.4
				c-1.2,0.37-2.5,0.36-3.58,1.07c-0.63,0.41-0.25,1.52,0.53,1.27c3.85-1.24,7.55-2.96,10.97-5.11c0.65-0.41,0.24-1.48-0.53-1.26
				c-1.4,0.39-1.64,2.34-0.48,3.14c0.32,0.22,0.75,0.04,0.95-0.25c0.66-0.99,2.16-1.39,3.21-0.83c0.69,0.37,1.23,0.96,1.99,1.2
				c0.71,0.22,1.48,0.06,2.03-0.43c1.02-0.89,1.12-2.53,0.92-3.77c-0.26-1.71-0.8-3.37-1.52-4.95c-0.81-1.77-1.89-3.41-3.18-4.87
				c-0.25-0.28-0.73-0.25-0.98,0c-0.28,0.28-0.25,0.7,0,0.98c2.14,2.43,3.6,5.42,4.23,8.6c0.11,0.58,0.19,1.16,0.11,1.73
				c-0.04,0.26-0.11,0.59-0.21,0.8c-0.03,0.07-0.12,0.23-0.18,0.32c0.04-0.06-0.22,0.22-0.15,0.16c-0.11,0.08-0.16,0.1-0.22,0.11
				c-0.14,0.04-0.13,0.05-0.29,0.03c-0.31-0.03-0.59-0.23-0.84-0.41c-0.6-0.42-1.15-0.85-1.88-1.03c-1.61-0.38-3.33,0.28-4.25,1.65
				c0.32-0.08,0.63-0.17,0.95-0.25c0.08,0.06-0.05-0.09,0,0c-0.1-0.18,0.02,0.11-0.05-0.09c-0.06-0.15-0.01,0.07-0.02-0.1
				c0-0.01,0.02-0.21,0-0.1c0.03-0.15,0.02-0.13,0.12-0.29c-0.06,0.08,0.07-0.04,0.02,0c0.03-0.02,0-0.01,0.08-0.03
				c-0.18-0.42-0.36-0.84-0.53-1.26c-3.33,2.09-6.9,3.77-10.64,4.97c0.18,0.42,0.36,0.84,0.53,1.26c0.97-0.63,2.18-0.6,3.25-0.93
				c1.03-0.31,1.76-0.93,2.14-1.94c0.29-0.77,0.27-1.79-0.38-2.39c-0.41-0.38-0.98-0.49-1.52-0.42c-0.28,0.04-0.54,0.13-0.82,0.16
				c-0.22,0.03-0.4,0.01-0.57-0.07c-0.82-0.36-1.21-1.61-1.43-2.47c-0.17-0.63-1.2-0.69-1.33,0c-0.38,1.96-1.05,3.85-2,5.6
				c0.42,0.06,0.84,0.11,1.26,0.17c-0.29-1.08-0.4-2.18-0.33-3.29c0.05-0.79-1.15-0.92-1.36-0.18c-2.22,7.98-3.72,16.16-4.49,24.41
				c-0.22,2.34-0.38,4.7-0.48,7.05h1.38c-0.13-4.08-0.27-8.16-0.4-12.25c-0.13-3.95-0.2-7.91-0.58-11.85
				c-0.21-2.23-0.52-4.46-1-6.66c-0.12-0.55-0.78-0.61-1.16-0.31c-3.23,2.66-6.86,4.84-10.71,6.47c-0.54,0.23-0.39,1.16,0.16,1.27
				c2.64,0.5,5.34,0.65,8.02,0.39c1.9-0.19,5.6-0.52,4.96-3.36c-0.26-1.16-1.26-2.07-2.06-2.88c-0.83-0.84-1.69-1.64-2.54-2.47
				c-1.57-1.54-3.16-3.22-3.99-5.3c-0.84-2.12-1.02-4.59,0.37-6.52c-0.43-0.12-0.86-0.23-1.29-0.35c-0.1,2.69-1.08,5.25-2.27,7.64
				c-1.3,2.61-2.76,5.13-4.16,7.69c-0.82,1.49-1.63,2.98-2.45,4.47C124.18,48.67,125.37,49.37,125.8,48.58"/>
			<path class="st1" d="M170.2,40.41c2.15-0.79,3.84-2.58,4.45-4.8c0.14-0.52-0.34-0.97-0.85-0.85c-0.99,0.23-2.04,0.54-2.66,1.41
				c-0.51,0.71-0.59,1.79-0.04,2.5c0.74,0.95,1.95,0.67,2.94,0.36c1.17-0.37,2.33-0.73,3.5-1.1c0.85-0.27,0.49-1.6-0.37-1.33
				c-0.91,0.28-1.81,0.57-2.72,0.85c-0.42,0.13-0.83,0.27-1.25,0.39c-0.27,0.08-0.64,0.2-0.91,0.06c-0.14-0.07-0.17-0.19-0.18-0.37
				c-0.01-0.19,0.06-0.43,0.17-0.58c0.41-0.56,1.26-0.7,1.88-0.85c-0.28-0.28-0.57-0.57-0.85-0.85c-0.48,1.73-1.79,3.21-3.48,3.83
				c-0.35,0.13-0.59,0.47-0.48,0.85C169.45,40.26,169.85,40.54,170.2,40.41"/>
		</g>
	</g>
</g>
</svg>
